<svg width="143" height="34" viewBox="0 0 143 34" fill="none" xmlns="http://www.w3.org/2000/svg">
<mask id="path-1-outside-1_2303_518" maskUnits="userSpaceOnUse" x="0" y="0" width="32" height="34" fill="black">
<rect fill="white" width="32" height="34"/>
<path d="M25.2616 4.22729C25.7331 4.60304 26.1827 5.00622 26.6078 5.43481C28.0007 6.84033 29.1041 8.50976 29.858 10.3476C30.612 12.1853 31 14.1553 31 16.1449C31 18.1344 30.612 20.1045 29.858 21.9423C29.1041 23.7799 27.9991 25.4494 26.6062 26.8549C26.3175 27.1534 25.9875 27.4536 25.5652 27.8206L25.5453 27.839C25.0079 28.2812 24.4418 28.6869 23.8511 29.0532C23.8263 29.072 23.8004 29.0891 23.7735 29.1049C23.3908 29.34 22.9767 29.5651 22.5049 29.797C21.8456 30.1285 21.1589 30.4009 20.4525 30.6108H20.4426C19.0057 31.068 17.5079 31.2992 16.0014 31.2964C15.6952 31.2964 15.4014 31.1732 15.1848 30.9544C14.9683 30.7355 14.8466 30.4384 14.8466 30.1289C14.8466 29.8191 14.9683 29.5223 15.1848 29.3033C15.4014 29.0844 15.6952 28.9614 16.0014 28.9614C17.2809 28.964 18.5532 28.7666 19.7728 28.376H19.7861C20.3679 28.2039 20.9337 27.9807 21.4771 27.7088C21.8697 27.5171 22.2062 27.3352 22.5114 27.1501L22.5774 27.1051C23.0965 26.7865 23.5925 26.4316 24.0622 26.0426C24.4334 25.7257 24.7221 25.4589 24.9679 25.2087C26.1461 24.0204 27.0807 22.6087 27.7183 21.0547C28.356 19.5007 28.6843 17.8347 28.6843 16.1524C28.6843 14.47 28.356 12.804 27.7183 11.25C27.0807 9.69598 26.1461 8.28437 24.9679 7.09598C24.6068 6.72979 24.2246 6.38562 23.823 6.06526C23.6481 5.92682 23.4683 5.79006 23.2901 5.65831L23.2076 5.60493C23.0014 5.45817 22.7919 5.3214 22.584 5.19464C22.5593 5.1813 22.5362 5.16463 22.5114 5.14794C21.8245 4.74097 21.1041 4.39444 20.3584 4.11222H20.3403C20.1697 4.04297 19.9959 3.98285 19.819 3.93209L19.7728 3.91875C18.5516 3.53559 17.2801 3.34104 16.0014 3.34167H15.4751C15.3992 3.35261 15.3226 3.35818 15.2459 3.35835L14.7921 3.39004H14.7724C14.7403 3.39677 14.7081 3.40216 14.6756 3.4062C14.6639 3.40766 14.6522 3.40895 14.6404 3.41005L14.4243 3.43841H14.388C14.2219 3.45329 14.0566 3.47723 13.893 3.51012L13.8319 3.5218C13.1444 3.63801 12.4681 3.81492 11.811 4.0505C11.2888 4.23447 10.781 4.45745 10.2916 4.71764C10.2686 4.73011 10.2449 4.74126 10.2206 4.75099C10.1711 4.77268 10.12 4.79602 10.0969 4.80938L10.0622 4.82771C9.88242 4.91945 9.68774 5.03287 9.47986 5.16129C9.1895 5.33474 8.91894 5.51321 8.66323 5.7C8.62529 5.73336 8.56753 5.77672 8.49825 5.82009L8.39431 5.90014L8.36396 5.92395C8.3138 5.96326 8.26191 6.00393 8.21118 6.04691L8.1518 6.09194C8.10223 6.13212 8.05048 6.16943 7.99673 6.20369C7.8985 6.27721 7.80587 6.35805 7.71957 6.44553C7.70142 6.46387 7.68327 6.48221 7.66345 6.49889C7.5527 6.59535 7.44047 6.70139 7.32484 6.81063C7.26654 6.86573 7.20738 6.92165 7.14709 6.97756C6.87817 7.23775 6.5977 7.5463 6.2925 7.90489C6.27293 7.9361 6.25085 7.96568 6.2265 7.99328C5.5761 8.78928 5.02224 9.66107 4.57672 10.5901C4.46455 10.8186 4.39362 10.9737 4.33753 11.1221L4.32598 11.1489C4.18574 11.4891 4.05046 11.8694 3.89867 12.3414C3.51294 13.5734 3.31817 14.8584 3.32127 16.1507V16.3959C3.32374 16.4342 3.32374 16.4726 3.32127 16.511V30.1356C3.32127 30.4453 3.19958 30.7422 2.98301 30.9611C2.76643 31.1799 2.47271 31.303 2.16644 31.303C1.86014 31.303 1.56639 31.1799 1.34981 30.9611C1.13324 30.7422 1.01158 30.4453 1.01158 30.1356V16.5593C1.00003 16.4076 1.00003 16.2657 1.00003 16.1473C0.997066 14.6122 1.22915 13.0859 1.68799 11.6225C1.8645 11.0921 2.01793 10.6568 2.18292 10.2582C2.2885 9.98635 2.40563 9.74118 2.49802 9.55604C3.00282 8.50252 3.62616 7.51139 4.35568 6.6023C4.38279 6.56135 4.41198 6.52182 4.44311 6.48388C4.82914 6.02356 5.1855 5.62828 5.53361 5.29471L5.54681 5.28137C5.57939 5.25054 5.61213 5.21944 5.64506 5.18818C5.79378 5.04695 5.94579 4.90257 6.10113 4.76601C6.28168 4.58753 6.47523 4.42306 6.6802 4.274C6.68551 4.27042 6.69081 4.26671 6.69617 4.26298C6.71074 4.25283 6.72555 4.24251 6.74125 4.23396L6.76268 4.21729C6.83528 4.16058 6.92766 4.08552 6.97551 4.0505C7.018 4.01941 7.05918 3.98701 7.09903 3.95561L7.11408 3.94376C7.16107 3.90495 7.21132 3.87036 7.26423 3.84035L7.28071 3.82869L7.29886 3.81367C7.61727 3.58517 7.94888 3.36668 8.28873 3.16321C8.51804 3.02144 8.75067 2.88635 8.96843 2.76959C9.08228 2.70623 9.18622 2.65953 9.27365 2.62117C9.84741 2.3215 10.4418 2.06398 11.0521 1.85062C11.8248 1.57431 12.6197 1.36563 13.4278 1.22685C13.6645 1.17646 13.888 1.14986 14.0886 1.12599L14.124 1.12177L14.3566 1.09175C14.4805 1.06006 14.6083 1.04602 14.7361 1.05005L15.137 1.02337H15.1996C15.2198 1.02031 15.24 1.01788 15.2603 1.01609C15.2736 1.01491 15.2869 1.01399 15.3002 1.01336C15.5395 1.00002 15.777 1.00002 16.0097 1.00002C17.5114 0.997512 19.0051 1.22238 20.441 1.66716C20.6902 1.73843 20.9359 1.82249 21.1767 1.919C22.0742 2.25795 22.9399 2.67714 23.7636 3.17155C23.7933 3.1899 23.823 3.20824 23.8527 3.22992C24.049 3.35168 24.247 3.48177 24.4433 3.61686C24.489 3.64244 24.533 3.67085 24.5753 3.70192L24.6113 3.72883C24.8214 3.88572 25.0401 4.04904 25.2616 4.22729Z"/>
<path fill-rule="evenodd" clip-rule="evenodd" d="M10.3977 33C9.99323 33 9.60539 32.8377 9.31945 32.549C9.03351 32.26 8.87284 31.8682 8.87284 31.4598V15.9837C8.87249 15.7352 8.8845 15.4873 8.90865 15.2409C8.9589 14.7176 9.06203 14.1982 9.2181 13.6909C9.40804 13.1045 9.66224 12.5413 9.97615 12.0121C9.99912 11.9738 10.0225 11.9355 10.0461 11.8977C10.2216 11.6144 10.4163 11.3434 10.629 11.0869C10.7818 10.9015 10.9434 10.7233 11.1132 10.5532C11.2116 10.4544 11.3125 10.3586 11.4156 10.2659C12.052 9.6829 12.7837 9.21421 13.5792 8.88101C14.5006 8.49535 15.4888 8.29919 16.4862 8.30431L16.4911 8.30433L16.496 8.30431C17.4934 8.29919 18.4816 8.49535 19.403 8.88101C20.1985 9.21421 20.9302 9.6829 21.5666 10.2659C21.6697 10.3586 21.7706 10.4544 21.869 10.5532C22.0388 10.7233 22.2003 10.9014 22.3531 11.0868C22.5658 11.3433 22.7607 11.6145 22.9362 11.8978C22.9598 11.9357 22.9831 11.9738 23.006 12.0121C23.32 12.5413 23.5742 13.1045 23.7641 13.6909C23.9202 14.1982 24.0233 14.7176 24.0736 15.2409C24.0849 15.3572 24.0937 15.4739 24.0996 15.5909L24.0993 15.5931C24.1452 16.4984 24.0334 17.41 23.7641 18.2852C23.5759 18.8692 23.3239 19.4302 23.0127 19.9576C22.3336 21.0894 21.378 22.0261 20.2374 22.6778C19.0968 23.3294 17.8096 23.674 16.4993 23.6784L16.4911 23.6783L16.4829 23.6784C15.1726 23.674 13.8854 23.3294 12.7448 22.6778C12.4594 22.5148 12.1856 22.3338 11.9248 22.1365V31.4598C11.9248 31.6622 11.8852 31.8627 11.8085 32.0497C11.7316 32.2367 11.6191 32.4066 11.4773 32.5496C11.3355 32.6927 11.1672 32.8062 10.9818 32.8834C10.7966 32.9606 10.5981 33.0002 10.3977 33ZM19.7025 12.7359C19.5704 12.6009 19.4304 12.4747 19.2832 12.358C19.1058 12.2204 18.9181 12.0955 18.7215 11.9848C18.0395 11.6005 17.272 11.3979 16.4911 11.3959C15.7102 11.3979 14.9427 11.6005 14.2607 11.9848C14.0641 12.0955 13.8764 12.2204 13.6989 12.358C13.5518 12.4747 13.4118 12.6009 13.2797 12.7359L13.2579 12.758C12.8424 13.1674 12.516 13.6598 12.2994 14.2035L12.2798 14.2498C12.0402 14.8048 11.9193 15.4046 11.9248 16.0101V16.1331C11.9375 16.543 12.0039 16.9515 12.124 17.3479C12.2397 17.7057 12.3938 18.0494 12.5836 18.3733C12.9928 19.0483 13.5655 19.607 14.2477 19.9963C14.93 20.3855 15.6994 20.5926 16.4829 20.5979L16.4911 20.5979L16.4993 20.5979C17.2828 20.5926 18.0522 20.3855 18.7345 19.9963C19.4167 19.607 19.9894 19.0483 20.3986 18.3733C20.5884 18.0494 20.7425 17.7057 20.8582 17.3479C21.0067 16.8581 21.0731 16.3495 21.0574 15.843V15.9318C21.0522 15.353 20.9317 14.7809 20.7024 14.2498L20.6828 14.2035C20.4662 13.6598 20.1398 13.1674 19.7243 12.758L19.7025 12.7359Z"/>
<path d="M24.0996 15.5909C24.1034 15.5576 24.106 15.5242 24.1076 15.4906C24.1088 15.4661 24.1094 15.4416 24.1094 15.417V15.9632C24.1092 15.8389 24.1059 15.7147 24.0996 15.5909Z"/>
</mask>
<path d="M25.2616 4.22729C25.7331 4.60304 26.1827 5.00622 26.6078 5.43481C28.0007 6.84033 29.1041 8.50976 29.858 10.3476C30.612 12.1853 31 14.1553 31 16.1449C31 18.1344 30.612 20.1045 29.858 21.9423C29.1041 23.7799 27.9991 25.4494 26.6062 26.8549C26.3175 27.1534 25.9875 27.4536 25.5652 27.8206L25.5453 27.839C25.0079 28.2812 24.4418 28.6869 23.8511 29.0532C23.8263 29.072 23.8004 29.0891 23.7735 29.1049C23.3908 29.34 22.9767 29.5651 22.5049 29.797C21.8456 30.1285 21.1589 30.4009 20.4525 30.6108H20.4426C19.0057 31.068 17.5079 31.2992 16.0014 31.2964C15.6952 31.2964 15.4014 31.1732 15.1848 30.9544C14.9683 30.7355 14.8466 30.4384 14.8466 30.1289C14.8466 29.8191 14.9683 29.5223 15.1848 29.3033C15.4014 29.0844 15.6952 28.9614 16.0014 28.9614C17.2809 28.964 18.5532 28.7666 19.7728 28.376H19.7861C20.3679 28.2039 20.9337 27.9807 21.4771 27.7088C21.8697 27.5171 22.2062 27.3352 22.5114 27.1501L22.5774 27.1051C23.0965 26.7865 23.5925 26.4316 24.0622 26.0426C24.4334 25.7257 24.7221 25.4589 24.9679 25.2087C26.1461 24.0204 27.0807 22.6087 27.7183 21.0547C28.356 19.5007 28.6843 17.8347 28.6843 16.1524C28.6843 14.47 28.356 12.804 27.7183 11.25C27.0807 9.69598 26.1461 8.28437 24.9679 7.09598C24.6068 6.72979 24.2246 6.38562 23.823 6.06526C23.6481 5.92682 23.4683 5.79006 23.2901 5.65831L23.2076 5.60493C23.0014 5.45817 22.7919 5.3214 22.584 5.19464C22.5593 5.1813 22.5362 5.16463 22.5114 5.14794C21.8245 4.74097 21.1041 4.39444 20.3584 4.11222H20.3403C20.1697 4.04297 19.9959 3.98285 19.819 3.93209L19.7728 3.91875C18.5516 3.53559 17.2801 3.34104 16.0014 3.34167H15.4751C15.3992 3.35261 15.3226 3.35818 15.2459 3.35835L14.7921 3.39004H14.7724C14.7403 3.39677 14.7081 3.40216 14.6756 3.4062C14.6639 3.40766 14.6522 3.40895 14.6404 3.41005L14.4243 3.43841H14.388C14.2219 3.45329 14.0566 3.47723 13.893 3.51012L13.8319 3.5218C13.1444 3.63801 12.4681 3.81492 11.811 4.0505C11.2888 4.23447 10.781 4.45745 10.2916 4.71764C10.2686 4.73011 10.2449 4.74126 10.2206 4.75099C10.1711 4.77268 10.12 4.79602 10.0969 4.80938L10.0622 4.82771C9.88242 4.91945 9.68774 5.03287 9.47986 5.16129C9.1895 5.33474 8.91894 5.51321 8.66323 5.7C8.62529 5.73336 8.56753 5.77672 8.49825 5.82009L8.39431 5.90014L8.36396 5.92395C8.3138 5.96326 8.26191 6.00393 8.21118 6.04691L8.1518 6.09194C8.10223 6.13212 8.05048 6.16943 7.99673 6.20369C7.8985 6.27721 7.80587 6.35805 7.71957 6.44553C7.70142 6.46387 7.68327 6.48221 7.66345 6.49889C7.5527 6.59535 7.44047 6.70139 7.32484 6.81063C7.26654 6.86573 7.20738 6.92165 7.14709 6.97756C6.87817 7.23775 6.5977 7.5463 6.2925 7.90489C6.27293 7.9361 6.25085 7.96568 6.2265 7.99328C5.5761 8.78928 5.02224 9.66107 4.57672 10.5901C4.46455 10.8186 4.39362 10.9737 4.33753 11.1221L4.32598 11.1489C4.18574 11.4891 4.05046 11.8694 3.89867 12.3414C3.51294 13.5734 3.31817 14.8584 3.32127 16.1507V16.3959C3.32374 16.4342 3.32374 16.4726 3.32127 16.511V30.1356C3.32127 30.4453 3.19958 30.7422 2.98301 30.9611C2.76643 31.1799 2.47271 31.303 2.16644 31.303C1.86014 31.303 1.56639 31.1799 1.34981 30.9611C1.13324 30.7422 1.01158 30.4453 1.01158 30.1356V16.5593C1.00003 16.4076 1.00003 16.2657 1.00003 16.1473C0.997066 14.6122 1.22915 13.0859 1.68799 11.6225C1.8645 11.0921 2.01793 10.6568 2.18292 10.2582C2.2885 9.98635 2.40563 9.74118 2.49802 9.55604C3.00282 8.50252 3.62616 7.51139 4.35568 6.6023C4.38279 6.56135 4.41198 6.52182 4.44311 6.48388C4.82914 6.02356 5.1855 5.62828 5.53361 5.29471L5.54681 5.28137C5.57939 5.25054 5.61213 5.21944 5.64506 5.18818C5.79378 5.04695 5.94579 4.90257 6.10113 4.76601C6.28168 4.58753 6.47523 4.42306 6.6802 4.274C6.68551 4.27042 6.69081 4.26671 6.69617 4.26298C6.71074 4.25283 6.72555 4.24251 6.74125 4.23396L6.76268 4.21729C6.83528 4.16058 6.92766 4.08552 6.97551 4.0505C7.018 4.01941 7.05918 3.98701 7.09903 3.95561L7.11408 3.94376C7.16107 3.90495 7.21132 3.87036 7.26423 3.84035L7.28071 3.82869L7.29886 3.81367C7.61727 3.58517 7.94888 3.36668 8.28873 3.16321C8.51804 3.02144 8.75067 2.88635 8.96843 2.76959C9.08228 2.70623 9.18622 2.65953 9.27365 2.62117C9.84741 2.3215 10.4418 2.06398 11.0521 1.85062C11.8248 1.57431 12.6197 1.36563 13.4278 1.22685C13.6645 1.17646 13.888 1.14986 14.0886 1.12599L14.124 1.12177L14.3566 1.09175C14.4805 1.06006 14.6083 1.04602 14.7361 1.05005L15.137 1.02337H15.1996C15.2198 1.02031 15.24 1.01788 15.2603 1.01609C15.2736 1.01491 15.2869 1.01399 15.3002 1.01336C15.5395 1.00002 15.777 1.00002 16.0097 1.00002C17.5114 0.997512 19.0051 1.22238 20.441 1.66716C20.6902 1.73843 20.9359 1.82249 21.1767 1.919C22.0742 2.25795 22.9399 2.67714 23.7636 3.17155C23.7933 3.1899 23.823 3.20824 23.8527 3.22992C24.049 3.35168 24.247 3.48177 24.4433 3.61686C24.489 3.64244 24.533 3.67085 24.5753 3.70192L24.6113 3.72883C24.8214 3.88572 25.0401 4.04904 25.2616 4.22729Z" fill="white"/>
<path fill-rule="evenodd" clip-rule="evenodd" d="M10.3977 33C9.99323 33 9.60539 32.8377 9.31945 32.549C9.03351 32.26 8.87284 31.8682 8.87284 31.4598V15.9837C8.87249 15.7352 8.8845 15.4873 8.90865 15.2409C8.9589 14.7176 9.06203 14.1982 9.2181 13.6909C9.40804 13.1045 9.66224 12.5413 9.97615 12.0121C9.99912 11.9738 10.0225 11.9355 10.0461 11.8977C10.2216 11.6144 10.4163 11.3434 10.629 11.0869C10.7818 10.9015 10.9434 10.7233 11.1132 10.5532C11.2116 10.4544 11.3125 10.3586 11.4156 10.2659C12.052 9.6829 12.7837 9.21421 13.5792 8.88101C14.5006 8.49535 15.4888 8.29919 16.4862 8.30431L16.4911 8.30433L16.496 8.30431C17.4934 8.29919 18.4816 8.49535 19.403 8.88101C20.1985 9.21421 20.9302 9.6829 21.5666 10.2659C21.6697 10.3586 21.7706 10.4544 21.869 10.5532C22.0388 10.7233 22.2003 10.9014 22.3531 11.0868C22.5658 11.3433 22.7607 11.6145 22.9362 11.8978C22.9598 11.9357 22.9831 11.9738 23.006 12.0121C23.32 12.5413 23.5742 13.1045 23.7641 13.6909C23.9202 14.1982 24.0233 14.7176 24.0736 15.2409C24.0849 15.3572 24.0937 15.4739 24.0996 15.5909L24.0993 15.5931C24.1452 16.4984 24.0334 17.41 23.7641 18.2852C23.5759 18.8692 23.3239 19.4302 23.0127 19.9576C22.3336 21.0894 21.378 22.0261 20.2374 22.6778C19.0968 23.3294 17.8096 23.674 16.4993 23.6784L16.4911 23.6783L16.4829 23.6784C15.1726 23.674 13.8854 23.3294 12.7448 22.6778C12.4594 22.5148 12.1856 22.3338 11.9248 22.1365V31.4598C11.9248 31.6622 11.8852 31.8627 11.8085 32.0497C11.7316 32.2367 11.6191 32.4066 11.4773 32.5496C11.3355 32.6927 11.1672 32.8062 10.9818 32.8834C10.7966 32.9606 10.5981 33.0002 10.3977 33ZM19.7025 12.7359C19.5704 12.6009 19.4304 12.4747 19.2832 12.358C19.1058 12.2204 18.9181 12.0955 18.7215 11.9848C18.0395 11.6005 17.272 11.3979 16.4911 11.3959C15.7102 11.3979 14.9427 11.6005 14.2607 11.9848C14.0641 12.0955 13.8764 12.2204 13.6989 12.358C13.5518 12.4747 13.4118 12.6009 13.2797 12.7359L13.2579 12.758C12.8424 13.1674 12.516 13.6598 12.2994 14.2035L12.2798 14.2498C12.0402 14.8048 11.9193 15.4046 11.9248 16.0101V16.1331C11.9375 16.543 12.0039 16.9515 12.124 17.3479C12.2397 17.7057 12.3938 18.0494 12.5836 18.3733C12.9928 19.0483 13.5655 19.607 14.2477 19.9963C14.93 20.3855 15.6994 20.5926 16.4829 20.5979L16.4911 20.5979L16.4993 20.5979C17.2828 20.5926 18.0522 20.3855 18.7345 19.9963C19.4167 19.607 19.9894 19.0483 20.3986 18.3733C20.5884 18.0494 20.7425 17.7057 20.8582 17.3479C21.0067 16.8581 21.0731 16.3495 21.0574 15.843V15.9318C21.0522 15.353 20.9317 14.7809 20.7024 14.2498L20.6828 14.2035C20.4662 13.6598 20.1398 13.1674 19.7243 12.758L19.7025 12.7359Z" fill="white"/>
<path d="M24.0996 15.5909C24.1034 15.5576 24.106 15.5242 24.1076 15.4906C24.1088 15.4661 24.1094 15.4416 24.1094 15.417V15.9632C24.1092 15.8389 24.1059 15.7147 24.0996 15.5909Z" fill="white"/>
<path d="M26.6078 5.43481L27.0657 4.98097L27.0655 4.98076L26.6078 5.43481ZM25.2616 4.22729L24.8575 4.72964L24.8598 4.73149L25.2616 4.22729ZM29.858 10.3476L29.2615 10.5923L29.2615 10.5923L29.858 10.3476ZM29.858 21.9423L30.4545 22.187L30.4545 22.187L29.858 21.9423ZM26.6062 26.8549L26.1482 26.401L26.1427 26.4067L26.6062 26.8549ZM25.5652 27.8206L25.1423 27.334L25.1348 27.3405L25.1275 27.3472L25.5652 27.8206ZM25.5453 27.839L25.955 28.3368L25.9694 28.325L25.983 28.3124L25.5453 27.839ZM23.8511 29.0532L23.5114 28.5052L23.4856 28.5212L23.4614 28.5395L23.8511 29.0532ZM23.7735 29.1049L23.4483 28.5481L23.4421 28.5518L23.436 28.5555L23.7735 29.1049ZM22.5049 29.797L22.2205 29.2183L22.2152 29.221L22.5049 29.797ZM20.4525 30.6108V31.2556H20.5463L20.6362 31.2289L20.4525 30.6108ZM20.4426 30.6108V29.9661H20.3425L20.2471 29.9965L20.4426 30.6108ZM16.0014 31.2964L16.0026 30.6516H16.0014V31.2964ZM15.1848 30.9544L14.7264 31.4078L14.7266 31.408L15.1848 30.9544ZM15.1848 29.3033L14.7266 28.8497L14.7263 28.85L15.1848 29.3033ZM16.0014 28.9614L16.0027 28.3167H16.0014V28.9614ZM19.7728 28.376V27.7312H19.6721L19.5761 27.762L19.7728 28.376ZM19.7861 28.376V29.0207H19.8794L19.9689 28.9942L19.7861 28.376ZM21.4771 27.7088L21.1941 27.1294L21.1885 27.1322L21.4771 27.7088ZM22.5114 27.1501L22.8458 27.7014L22.8605 27.6924L22.8747 27.6827L22.5114 27.1501ZM22.5774 27.1051L22.2402 26.5556L22.227 26.5637L22.2142 26.5724L22.5774 27.1051ZM24.0622 26.0426L24.4735 26.5393L24.4808 26.533L24.0622 26.0426ZM24.9679 25.2087L24.5101 24.7548L24.508 24.7569L24.9679 25.2087ZM27.7183 21.0547L27.1218 20.8099L27.1218 20.8099L27.7183 21.0547ZM27.7183 11.25L27.1218 11.4947L27.1218 11.4948L27.7183 11.25ZM24.9679 7.09598L24.5089 7.54869L24.5101 7.5499L24.9679 7.09598ZM23.823 6.06526L24.2251 5.56126L24.2232 5.55972L23.823 6.06526ZM23.2901 5.65831L23.6734 5.13988L23.6572 5.12788L23.6403 5.11693L23.2901 5.65831ZM23.2076 5.60493L22.8337 6.13019L22.8454 6.13851L22.8575 6.1463L23.2076 5.60493ZM22.584 5.19464L22.9197 4.64415L22.9051 4.63524L22.89 4.62713L22.584 5.19464ZM22.5114 5.14794L22.8716 4.6132L22.8561 4.60276L22.8401 4.59324L22.5114 5.14794ZM20.3584 4.11222L20.5867 3.50922L20.4764 3.46748H20.3584V4.11222ZM20.3403 4.11222L20.0978 4.70961L20.2144 4.75695H20.3403V4.11222ZM19.819 3.93209L19.6403 4.55155L19.6412 4.55181L19.819 3.93209ZM19.7728 3.91875L19.5798 4.53392L19.5869 4.53615L19.5941 4.53821L19.7728 3.91875ZM16.0014 3.34167V3.98641L16.0017 3.98641L16.0014 3.34167ZM15.4751 3.34167V2.69693H15.4289L15.3831 2.70353L15.4751 3.34167ZM15.2459 3.35835L15.2444 2.71361L15.2227 2.71366L15.201 2.71518L15.2459 3.35835ZM14.7921 3.39004V4.03478H14.8146L14.837 4.03321L14.7921 3.39004ZM14.7724 3.39004V2.74531H14.7055L14.64 2.75903L14.7724 3.39004ZM14.6756 3.4062L14.596 2.7664L14.5958 2.76643L14.6756 3.4062ZM14.6404 3.41005L14.5799 2.76816L14.5682 2.76926L14.5565 2.7708L14.6404 3.41005ZM14.4243 3.43841V4.08315H14.4664L14.5081 4.07767L14.4243 3.43841ZM14.388 3.43841V2.79367H14.3591L14.3304 2.79625L14.388 3.43841ZM13.893 3.51012L14.0141 4.1434L14.0201 4.14221L13.893 3.51012ZM13.8319 3.5218L13.9394 4.15767L13.9531 4.15506L13.8319 3.5218ZM11.811 4.0505L12.0252 4.6586L12.0286 4.6574L11.811 4.0505ZM10.2916 4.71764L9.9889 4.14833L9.98419 4.15088L10.2916 4.71764ZM10.2206 4.75099L9.98025 4.15274L9.97107 4.15643L9.962 4.1604L10.2206 4.75099ZM10.0969 4.80938L10.3983 5.37934L10.4092 5.37358L10.4198 5.3674L10.0969 4.80938ZM10.0622 4.82771L10.3553 5.40208L10.3636 5.39768L10.0622 4.82771ZM9.47986 5.16129L9.81054 5.71485L9.81871 5.7098L9.47986 5.16129ZM8.66323 5.7L8.28291 5.17939L8.25941 5.19656L8.23755 5.21577L8.66323 5.7ZM8.49825 5.82009L8.15616 5.27359L8.12963 5.2902L8.10484 5.30929L8.49825 5.82009ZM8.39431 5.90014L8.00088 5.38933L7.9963 5.39292L8.39431 5.90014ZM8.36396 5.92395L8.76163 6.43144L8.76197 6.43118L8.36396 5.92395ZM8.21118 6.04691L8.60077 6.56063L8.61464 6.55011L8.62792 6.53886L8.21118 6.04691ZM8.1518 6.09194L7.76221 5.57822L7.75392 5.58451L7.74583 5.59106L8.1518 6.09194ZM7.99673 6.20369L7.65019 5.66L7.62978 5.67301L7.6104 5.68751L7.99673 6.20369ZM7.71957 6.44553L8.17784 6.89904L8.17854 6.89833L7.71957 6.44553ZM7.66345 6.49889L7.24823 6.00554L7.24002 6.0127L7.66345 6.49889ZM7.32484 6.81063L6.88206 6.34199L6.88198 6.34206L7.32484 6.81063ZM7.14709 6.97756L6.70857 6.50473L6.69878 6.5142L7.14709 6.97756ZM6.2925 7.90489L5.80152 7.48701L5.77116 7.52268L5.74628 7.56236L6.2925 7.90489ZM6.2265 7.99328L5.74296 7.56681L5.73492 7.57593L5.72724 7.58533L6.2265 7.99328ZM4.57672 10.5901L5.15551 10.8742L5.15807 10.8689L4.57672 10.5901ZM4.33753 11.1221L4.92946 11.3777L4.93537 11.364L4.94064 11.35L4.33753 11.1221ZM4.32598 11.1489L3.73397 10.8933L3.72989 10.9032L4.32598 11.1489ZM3.89867 12.3414L3.28487 12.144L3.28338 12.1487L3.89867 12.3414ZM3.32127 16.1507H3.96601L3.966 16.1491L3.32127 16.1507ZM3.32127 16.3959H2.67653V16.4167L2.67787 16.4375L3.32127 16.3959ZM3.32127 16.511L2.67787 16.4694L2.67653 16.4902V16.511H3.32127ZM2.98301 30.9611L3.44126 31.4146L3.44136 31.4145L2.98301 30.9611ZM1.34981 30.9611L0.891461 31.4145L0.89156 31.4146L1.34981 30.9611ZM1.01158 16.5593H1.65632V16.5348L1.65446 16.5104L1.01158 16.5593ZM1.00003 16.1473H1.64477L1.64476 16.1461L1.00003 16.1473ZM1.68799 11.6225L1.07615 11.4189L1.07279 11.4296L1.68799 11.6225ZM2.18292 10.2582L2.77879 10.5048L2.7839 10.4916L2.18292 10.2582ZM2.49802 9.55604L3.07499 9.84397L3.07945 9.83465L2.49802 9.55604ZM4.35568 6.6023L4.85853 7.00582L4.87697 6.98283L4.89324 6.95827L4.35568 6.6023ZM4.44311 6.48388L3.94907 6.06957L3.94465 6.07495L4.44311 6.48388ZM5.53361 5.29471L5.97968 5.76024L5.98593 5.75424L5.99203 5.74808L5.53361 5.29471ZM5.54681 5.28137L5.10367 4.81306L5.09591 4.82041L5.08839 4.828L5.54681 5.28137ZM5.64506 5.18818L6.08893 5.6558L6.08904 5.65569L5.64506 5.18818ZM6.10113 4.76601L6.52681 5.25024L6.54098 5.23779L6.55439 5.22453L6.10113 4.76601ZM6.6802 4.274L6.31929 3.73974L6.31003 3.746L6.30099 3.75257L6.6802 4.274ZM6.69617 4.26298L7.06427 4.79231L7.0648 4.79194L6.69617 4.26298ZM6.74125 4.23396L7.04955 4.80021L7.09566 4.7751L7.13711 4.74286L6.74125 4.23396ZM6.76268 4.21729L7.15854 4.72619L7.15959 4.72537L6.76268 4.21729ZM6.97551 4.0505L6.59486 3.53012L6.59469 3.53025L6.97551 4.0505ZM7.09903 3.95561L6.70017 3.44906L6.70005 3.44915L7.09903 3.95561ZM7.11408 3.94376L7.51294 4.45031L7.51885 4.44566L7.52464 4.44088L7.11408 3.94376ZM7.26423 3.84035L7.58228 4.40118L7.61041 4.38523L7.6368 4.36654L7.26423 3.84035ZM7.28071 3.82869L7.65328 4.35487L7.67303 4.34089L7.69168 4.32547L7.28071 3.82869ZM7.29886 3.81367L6.92296 3.28985L6.90496 3.30277L6.88789 3.31689L7.29886 3.81367ZM8.28873 3.16321L8.61996 3.71643L8.62777 3.7116L8.28873 3.16321ZM8.96843 2.76959L9.27313 3.33787L9.28199 3.33295L8.96843 2.76959ZM9.27365 2.62117L9.53271 3.21157L9.55274 3.20278L9.57213 3.19265L9.27365 2.62117ZM11.0521 1.85062L11.2648 2.45925L11.2691 2.45772L11.0521 1.85062ZM13.4278 1.22685L13.5369 1.86228L13.5495 1.86012L13.5621 1.85745L13.4278 1.22685ZM14.0886 1.12599L14.1648 1.76621L14.165 1.76619L14.0886 1.12599ZM14.124 1.12177L14.2004 1.76199L14.2065 1.76121L14.124 1.12177ZM14.3566 1.09175L14.4391 1.73119L14.4782 1.72614L14.5164 1.71638L14.3566 1.09175ZM14.7361 1.05005L14.7157 1.69447L14.7473 1.69547L14.7789 1.69337L14.7361 1.05005ZM15.137 1.02337V0.378635H15.1155L15.0941 0.380058L15.137 1.02337ZM15.1996 1.02337V1.66811H15.2483L15.2965 1.66079L15.1996 1.02337ZM15.2603 1.01609L15.3171 1.65831L15.3174 1.65829L15.2603 1.01609ZM15.3002 1.01336L15.3308 1.6574L15.3361 1.6571L15.3002 1.01336ZM16.0097 1.00002V1.64476L16.0108 1.64476L16.0097 1.00002ZM20.441 1.66716L20.2502 2.28317L20.2637 2.28705L20.441 1.66716ZM21.1767 1.919L20.9369 2.51761L20.949 2.52216L21.1767 1.919ZM23.7636 3.17155L24.1027 2.62311L24.0954 2.61875L23.7636 3.17155ZM23.8527 3.22992L23.4723 3.75048L23.4921 3.76494L23.5129 3.77786L23.8527 3.22992ZM24.4433 3.61686L24.0779 4.14802L24.1024 4.1649L24.1284 4.17945L24.4433 3.61686ZM24.5753 3.70192L24.9611 3.18533L24.9571 3.18239L24.5753 3.70192ZM24.6113 3.72883L24.9972 3.21229L24.9971 3.21225L24.6113 3.72883ZM9.31945 32.549L8.86118 33.0025L8.86136 33.0027L9.31945 32.549ZM10.3977 33L10.3985 32.3553H10.3977V33ZM8.87284 15.9837H9.51757L9.51757 15.9828L8.87284 15.9837ZM8.90865 15.2409L9.55031 15.3038L9.55044 15.3026L8.90865 15.2409ZM9.2181 13.6909L8.60467 13.4922L8.60187 13.5013L9.2181 13.6909ZM9.97615 12.0121L9.42321 11.6805L9.42163 11.6831L9.97615 12.0121ZM10.0461 11.8977L10.5932 12.2388L10.5942 12.2372L10.0461 11.8977ZM10.629 11.0869L11.1253 11.4985L11.1266 11.4969L10.629 11.0869ZM11.1132 10.5532L11.5696 11.0085L11.5697 11.0084L11.1132 10.5532ZM11.4156 10.2659L11.8468 10.7453L11.8511 10.7413L11.4156 10.2659ZM13.5792 8.88101L13.3303 8.28628L13.3302 8.28633L13.5792 8.88101ZM16.4862 8.30431L16.4829 8.94904L16.4844 8.94905L16.4862 8.30431ZM16.4911 8.30433L16.4893 8.94907L16.4929 8.94906L16.4911 8.30433ZM16.496 8.30431L16.4978 8.94905L16.4993 8.94904L16.496 8.30431ZM19.403 8.88101L19.652 8.28633L19.6519 8.28628L19.403 8.88101ZM21.5666 10.2659L21.1311 10.7413L21.1354 10.7453L21.5666 10.2659ZM21.869 10.5532L21.4125 11.0084L21.4126 11.0085L21.869 10.5532ZM22.3531 11.0868L21.8554 11.4968L21.8567 11.4983L22.3531 11.0868ZM22.9362 11.8978L22.3881 12.2373L22.3891 12.239L22.9362 11.8978ZM23.006 12.0121L23.5606 11.6831L23.559 11.6805L23.006 12.0121ZM23.7641 13.6909L24.3804 13.5013L24.3775 13.4922L23.7641 13.6909ZM24.0736 15.2409L23.4318 15.3026L23.4319 15.3038L24.0736 15.2409ZM24.0993 15.5931L23.4593 15.5153L23.4526 15.5703L23.4554 15.6256L24.0993 15.5931ZM23.7641 18.2852L24.3778 18.483L24.3803 18.4748L23.7641 18.2852ZM23.0127 19.9576L23.5655 20.2893L23.568 20.2852L23.0127 19.9576ZM20.2374 22.6778L20.5572 23.2377L20.5572 23.2377L20.2374 22.6778ZM16.4993 23.6784L16.4977 24.3231L16.5015 24.3231L16.4993 23.6784ZM16.4911 23.6783L16.4927 23.0336L16.4895 23.0336L16.4911 23.6783ZM16.4829 23.6784L16.4807 24.3231L16.4845 24.3231L16.4829 23.6784ZM12.7448 22.6778L12.425 23.2377L12.425 23.2377L12.7448 22.6778ZM11.9248 22.1365L12.3138 21.6224L11.28 20.8401V22.1365H11.9248ZM11.8085 32.0497L12.4048 32.2948L12.4049 32.2945L11.8085 32.0497ZM11.4773 32.5496L11.0195 32.0956L11.0194 32.0958L11.4773 32.5496ZM10.9818 32.8834L10.7341 32.2881L10.7336 32.2883L10.9818 32.8834ZM24.1076 15.4906L24.7516 15.5211V15.5211L24.1076 15.4906ZM24.1094 15.9632L23.4646 15.964L24.7541 15.9632H24.1094ZM19.2832 12.358L19.6839 11.8528L19.6785 11.8486L19.2832 12.358ZM19.7025 12.7359L19.2415 13.1867L19.2443 13.1895L19.7025 12.7359ZM18.7215 11.9848L18.405 12.5465L18.405 12.5465L18.7215 11.9848ZM16.4911 11.3959L16.4928 10.7512L16.4894 10.7512L16.4911 11.3959ZM14.2607 11.9848L14.5772 12.5465L14.5772 12.5465L14.2607 11.9848ZM13.6989 12.358L13.3037 11.8486L13.2983 11.8529L13.6989 12.358ZM13.2797 12.7359L13.7379 13.1895L13.7407 13.1867L13.2797 12.7359ZM13.2579 12.758L13.7105 13.2172L13.7161 13.2116L13.2579 12.758ZM12.2994 14.2035L12.8931 14.4551L12.8983 14.4421L12.2994 14.2035ZM12.2798 14.2498L12.8717 14.5053L12.8734 14.5013L12.2798 14.2498ZM11.9248 16.0101H12.5695L12.5695 16.0043L11.9248 16.0101ZM11.9248 16.1331H11.28V16.1431L11.2803 16.1531L11.9248 16.1331ZM12.124 17.3479L11.5068 17.535L11.5105 17.5463L12.124 17.3479ZM12.5836 18.3733L12.0272 18.6992L12.0322 18.7074L12.5836 18.3733ZM14.2477 19.9963L13.9282 20.5563L13.9282 20.5563L14.2477 19.9963ZM16.4829 20.5979L16.4786 21.2426L16.4813 21.2426L16.4829 20.5979ZM16.4911 20.5979L16.4895 21.2426L16.4927 21.2426L16.4911 20.5979ZM16.4993 20.5979L16.5009 21.2426L16.5036 21.2426L16.4993 20.5979ZM18.7345 19.9963L19.054 20.5563L19.054 20.5563L18.7345 19.9963ZM20.3986 18.3733L20.95 18.7075L20.9549 18.6991L20.3986 18.3733ZM20.8582 17.3479L21.4718 17.5463L21.4752 17.5349L20.8582 17.3479ZM21.0574 15.843L21.7019 15.8231L20.4127 15.843H21.0574ZM21.0574 15.9318L20.4127 15.9376L21.7022 15.9318H21.0574ZM20.7024 14.2498L20.1088 14.5013L20.1105 14.5053L20.7024 14.2498ZM20.6828 14.2035L20.0837 14.4422L20.0892 14.4551L20.6828 14.2035ZM19.7243 12.758L19.2661 13.2116L19.2718 13.2172L19.7243 12.758ZM27.0655 4.98076C26.6227 4.53437 26.1545 4.11444 25.6635 3.72309L24.8598 4.73149C25.3117 5.09164 25.7426 5.47808 26.15 5.88886L27.0655 4.98076ZM30.4545 10.1029C29.6688 8.18754 28.5185 6.44691 27.0657 4.98097L26.1498 5.88865C27.4829 7.23376 28.5394 8.83199 29.2615 10.5923L30.4545 10.1029ZM31.6447 16.1449C31.6447 14.0715 31.2404 12.0183 30.4545 10.1029L29.2615 10.5923C29.9835 12.3522 30.3553 14.2391 30.3553 16.1449H31.6447ZM30.4545 22.187C31.2404 20.2714 31.6447 18.2182 31.6447 16.1449H30.3553C30.3553 18.0507 29.9835 19.9376 29.2615 21.6976L30.4545 22.187ZM27.0641 27.3087C28.5167 25.843 29.6687 24.1024 30.4545 22.187L29.2616 21.6976C28.5396 23.4574 27.4815 25.0558 26.1483 26.401L27.0641 27.3087ZM25.9881 28.3073C26.4145 27.9367 26.7613 27.622 27.0697 27.3031L26.1427 26.4067C25.8737 26.6849 25.5604 26.9706 25.1423 27.334L25.9881 28.3073ZM25.983 28.3124L26.0028 28.294L25.1275 27.3472L25.1077 27.3655L25.983 28.3124ZM24.1909 29.6011C24.806 29.2197 25.3954 28.7973 25.955 28.3368L25.1357 27.3411C24.6203 27.7652 24.0777 28.1541 23.5114 28.5052L24.1909 29.6011ZM24.0987 29.6616C24.1465 29.6337 24.1941 29.6022 24.2408 29.5668L23.4614 28.5395C23.4586 28.5417 23.4543 28.5446 23.4483 28.5481L24.0987 29.6616ZM22.7892 30.3756C23.2753 30.1367 23.7078 29.9019 24.111 29.6542L23.436 28.5555C23.0739 28.778 22.678 28.9935 22.2205 29.2183L22.7892 30.3756ZM20.6362 31.2289C21.3792 31.008 22.1014 30.7216 22.7945 30.373L22.2152 29.221C21.5899 29.5355 20.9387 29.7937 20.2688 29.9928L20.6362 31.2289ZM20.4426 31.2556H20.4525V29.9661H20.4426V31.2556ZM16.0002 31.9411C17.5734 31.944 19.1376 31.7027 20.6381 31.2252L20.2471 29.9965C18.8738 30.4334 17.4423 30.6543 16.0026 30.6516L16.0002 31.9411ZM14.7266 31.408C15.0634 31.7482 15.5217 31.9411 16.0014 31.9411V30.6516C15.8686 30.6516 15.7395 30.5983 15.643 30.5008L14.7266 31.408ZM14.2018 30.1289C14.2018 30.6071 14.3897 31.0674 14.7264 31.4078L15.6432 30.501C15.5468 30.4036 15.4913 30.2697 15.4913 30.1289H14.2018ZM14.7263 28.85C14.3898 29.1903 14.2018 29.6503 14.2018 30.1289H15.4913C15.4913 29.9879 15.5467 29.8542 15.6433 29.7566L14.7263 28.85ZM16.0014 28.3167C15.5218 28.3167 15.0635 28.5094 14.7266 28.8497L15.643 29.7569C15.7394 29.6595 15.8685 29.6062 16.0014 29.6062V28.3167ZM19.5761 27.762C18.4205 28.1321 17.215 28.3192 16.0027 28.3167L16.0001 29.6062C17.3468 29.6089 18.6859 29.4011 19.9695 28.99L19.5761 27.762ZM19.7861 27.7312H19.7728V29.0207H19.7861V27.7312ZM21.1885 27.1322C20.6791 27.3871 20.1487 27.5964 19.6032 27.7577L19.9689 28.9942C20.5872 28.8114 21.1883 28.5742 21.7656 28.2854L21.1885 27.1322ZM22.1771 26.5988C21.8917 26.7719 21.5728 26.9445 21.1942 27.1294L21.76 28.2881C22.1665 28.0896 22.5207 27.8985 22.8458 27.7014L22.1771 26.5988ZM22.2142 26.5724L22.1482 26.6175L22.8747 27.6827L22.9407 27.6377L22.2142 26.5724ZM23.651 25.5461C23.2047 25.9157 22.7333 26.2529 22.2402 26.5556L22.9147 27.6546C23.4596 27.3201 23.9804 26.9475 24.4734 26.5392L23.651 25.5461ZM24.508 24.7569C24.2787 24.9903 24.0046 25.2441 23.6436 25.5523L24.4808 26.533C24.8623 26.2073 25.1656 25.9275 25.4278 25.6605L24.508 24.7569ZM27.1218 20.8099C26.5161 22.2862 25.6285 23.6267 24.5101 24.7548L25.4258 25.6627C26.6637 24.4142 27.6452 22.9313 28.3148 21.2994L27.1218 20.8099ZM28.0395 16.1524C28.0395 17.7509 27.7276 19.3337 27.1218 20.8099L28.3147 21.2994C28.9843 19.6677 29.329 17.9185 29.329 16.1524H28.0395ZM27.1218 11.4948C27.7276 12.971 28.0395 14.5538 28.0395 16.1524H29.329C29.329 14.3861 28.9843 12.637 28.3147 11.0052L27.1218 11.4948ZM24.5101 7.5499C25.6285 8.67808 26.5161 10.0185 27.1218 11.4947L28.3148 11.0053C27.6452 9.37342 26.6637 7.89066 25.4258 6.64205L24.5101 7.5499ZM23.4209 6.56924C23.8024 6.8736 24.1656 7.20065 24.5089 7.54869L25.427 6.64327C25.048 6.25894 24.6467 5.89763 24.2251 5.56127L23.4209 6.56924ZM22.9068 6.17674C23.0803 6.30502 23.2544 6.43746 23.4229 6.5708L24.2232 5.55972C24.0418 5.41619 23.8563 5.2751 23.6734 5.13988L22.9068 6.17674ZM22.8575 6.1463L22.94 6.19968L23.6403 5.11693L23.5577 5.06355L22.8575 6.1463ZM22.2484 5.74513C22.4448 5.86484 22.6413 5.99325 22.8337 6.13019L23.5815 5.07967C23.3615 4.92309 23.1391 4.77795 22.9197 4.64415L22.2484 5.74513ZM22.1513 5.68268C22.1515 5.68287 22.2166 5.72899 22.2781 5.76216L22.89 4.62713C22.8963 4.63051 22.9007 4.63317 22.9029 4.63452C22.905 4.63582 22.9056 4.63623 22.9038 4.63504C22.9018 4.63371 22.899 4.63179 22.8932 4.62787C22.8885 4.62465 22.88 4.61881 22.8716 4.6132L22.1513 5.68268ZM20.1302 4.71521C20.8411 4.98425 21.5279 5.31461 22.1828 5.70264L22.8401 4.59324C22.1212 4.16733 21.3672 3.80463 20.5867 3.50922L20.1302 4.71521ZM20.3403 4.75695H20.3584V3.46748H20.3403V4.75695ZM19.6412 4.55181C19.7959 4.59622 19.9482 4.64887 20.0978 4.70961L20.5828 3.51482C20.3913 3.43708 20.1959 3.36948 19.9969 3.31237L19.6412 4.55181ZM19.5941 4.53821L19.6403 4.55155L19.9978 3.31263L19.9516 3.29929L19.5941 4.53821ZM16.0017 3.98641C17.2148 3.98581 18.4211 4.17037 19.5798 4.53392L19.9658 3.30358C18.6821 2.90081 17.3454 2.69627 16.0011 2.69693L16.0017 3.98641ZM15.4751 3.98641H16.0014V2.69693H15.4751V3.98641ZM15.2473 4.00308C15.3543 4.00285 15.4611 3.99508 15.5671 3.97981L15.3831 2.70353C15.3373 2.71014 15.2909 2.71351 15.2444 2.71361L15.2473 4.00308ZM14.837 4.03321L15.2908 4.00152L15.201 2.71518L14.7472 2.74687L14.837 4.03321ZM14.7724 4.03478H14.7921V2.74531H14.7724V4.03478ZM14.7553 4.046C14.8056 4.03973 14.8554 4.03139 14.9047 4.02105L14.64 2.75903C14.6252 2.76215 14.6105 2.76459 14.596 2.7664L14.7553 4.046ZM14.7009 4.05195C14.7191 4.05023 14.7373 4.04824 14.7555 4.04597L14.5958 2.76643C14.5905 2.76708 14.5852 2.76766 14.5799 2.76816L14.7009 4.05195ZM14.5081 4.07767L14.7243 4.04931L14.5565 2.7708L14.3404 2.79915L14.5081 4.07767ZM14.388 4.08315H14.4243V2.79367H14.388V4.08315ZM14.0201 4.14221C14.1607 4.11394 14.3027 4.09337 14.4455 4.08057L14.3304 2.79625C14.141 2.81322 13.9525 2.84052 13.7659 2.87803L14.0201 4.14221ZM13.9531 4.15506L14.0141 4.14338L13.7719 2.87687L13.7108 2.88855L13.9531 4.15506ZM12.0286 4.6574C12.6499 4.43465 13.2893 4.26739 13.9394 4.15752L13.7245 2.88608C12.9994 3.00863 12.2862 3.19518 11.5934 3.44359L12.0286 4.6574ZM10.5942 5.28693C11.0552 5.04185 11.5335 4.83185 12.0252 4.65859L11.5967 3.4424C11.0442 3.6371 10.5068 3.87305 9.98891 4.14835L10.5942 5.28693ZM10.461 5.34924C10.5082 5.33027 10.5543 5.3086 10.5989 5.2844L9.98419 4.15088C9.98283 4.15162 9.9815 4.15224 9.98025 4.15274L10.461 5.34924ZM10.4198 5.3674C10.4093 5.3735 10.4036 5.37618 10.4073 5.37437C10.4095 5.37326 10.4142 5.37097 10.4218 5.3674C10.4371 5.36025 10.4571 5.3513 10.4792 5.34159L9.962 4.1604C9.92226 4.1778 9.83471 4.21619 9.77396 4.25135L10.4198 5.3674ZM10.3636 5.39768L10.3983 5.37934L9.79552 4.23941L9.76083 4.25775L10.3636 5.39768ZM9.81871 5.7098C10.0194 5.58584 10.1975 5.48252 10.3552 5.40202L9.76919 4.25341C9.56738 4.35638 9.35611 4.47989 9.141 4.61278L9.81871 5.7098ZM9.04356 6.22062C9.28215 6.04632 9.53603 5.87875 9.8105 5.71479L9.14921 4.60779C8.84297 4.79073 8.55572 4.98009 8.28291 5.17939L9.04356 6.22062ZM8.84034 6.36659C8.93365 6.30818 9.0204 6.24447 9.08892 6.18423L8.23755 5.21577C8.23531 5.21774 8.22659 5.22509 8.21107 5.23648C8.19607 5.24749 8.17744 5.26027 8.15616 5.27359L8.84034 6.36659ZM8.78773 6.41094L8.89167 6.33088L8.10484 5.30929L8.0009 5.38935L8.78773 6.41094ZM8.76197 6.43118L8.79232 6.40736L7.9963 5.39292L7.96595 5.41673L8.76197 6.43118ZM8.62792 6.53886C8.66776 6.50511 8.71005 6.47186 8.76163 6.43144L7.9663 5.41647C7.91754 5.45467 7.85606 5.50276 7.79444 5.55496L8.62792 6.53886ZM8.5414 6.60565L8.60077 6.56063L7.82159 5.53319L7.76221 5.57822L8.5414 6.60565ZM8.34327 6.74737C8.41776 6.6999 8.48934 6.64828 8.55777 6.59281L7.74583 5.59106C7.71512 5.61596 7.6832 5.63896 7.65019 5.66L8.34327 6.74737ZM8.17854 6.89833C8.24233 6.83367 8.31069 6.77403 8.38306 6.71986L7.6104 5.68751C7.48631 5.78038 7.36941 5.88243 7.26059 5.99273L8.17854 6.89833ZM8.07861 6.99217C8.12464 6.95343 8.16317 6.91386 8.17784 6.89904L7.2613 5.99201C7.25653 5.99683 7.25328 6.00011 7.25022 6.00317C7.24731 6.00608 7.24548 6.00788 7.24428 6.00903C7.24178 6.01145 7.24356 6.00959 7.24829 6.00561L8.07861 6.99217ZM7.76763 7.27927C7.88525 7.16814 7.98777 7.07141 8.08689 6.98509L7.24002 6.0127C7.11763 6.11928 6.99568 6.23463 6.88206 6.34199L7.76763 7.27927ZM7.58552 7.45029C7.6484 7.39197 7.70976 7.33397 7.7677 7.2792L6.88198 6.34206C6.82333 6.39749 6.76637 6.45132 6.70867 6.50483L7.58552 7.45029ZM6.78348 8.32277C7.08177 7.9723 7.34728 7.68099 7.59541 7.44092L6.69878 6.5142C6.40906 6.79451 6.11362 7.12031 5.80152 7.48701L6.78348 8.32277ZM6.71005 8.41974C6.75756 8.36587 6.8006 8.30822 6.83873 8.24741L5.74628 7.56236C5.74526 7.56399 5.74413 7.56548 5.74296 7.56681L6.71005 8.41974ZM5.15807 10.8689C5.5815 9.98591 6.10783 9.15749 6.72577 8.40122L5.72724 7.58533C5.04437 8.42106 4.46298 9.33623 3.99538 10.3113L5.15807 10.8689ZM4.94064 11.35C4.98564 11.231 5.04566 11.0979 5.15548 10.8742L3.99797 10.306C3.88343 10.5393 3.8016 10.7164 3.73442 10.8942L4.94064 11.35ZM4.91791 11.4044L4.92946 11.3777L3.7456 10.8666L3.73405 10.8933L4.91791 11.4044ZM4.51245 12.5388C4.66115 12.0763 4.7906 11.7135 4.92206 11.3946L3.72989 10.9032C3.58088 11.2647 3.43976 11.6624 3.28489 12.144L4.51245 12.5388ZM3.966 16.1491C3.96306 14.9226 4.14792 13.7031 4.51395 12.534L3.28338 12.1487C2.87795 13.4437 2.67328 14.7941 2.67653 16.1522L3.966 16.1491ZM3.966 16.3959V16.1507H2.67653V16.3959H3.966ZM3.96466 16.5525C3.96893 16.4865 3.96893 16.4203 3.96466 16.3543L2.67787 16.4375C2.67856 16.4481 2.67856 16.4587 2.67787 16.4694L3.96466 16.5525ZM3.966 30.1356V16.511H2.67653V30.1356H3.966ZM3.44136 31.4145C3.77806 31.0742 3.966 30.614 3.966 30.1356H2.67653C2.67653 30.2765 2.6211 30.4102 2.52465 30.5077L3.44136 31.4145ZM2.16644 31.9478C2.64613 31.9478 3.10448 31.7549 3.44126 31.4146L2.52475 30.5076C2.42838 30.605 2.29928 30.6583 2.16644 30.6583V31.9478ZM0.89156 31.4146C1.22835 31.7549 1.68674 31.9478 2.16644 31.9478V30.6583C2.03354 30.6583 1.90442 30.6049 1.80807 30.5076L0.89156 31.4146ZM0.366843 30.1356C0.366843 30.614 0.554728 31.0742 0.891461 31.4145L1.80817 30.5077C1.71175 30.4102 1.65632 30.2765 1.65632 30.1356H0.366843ZM0.366843 16.5593V30.1356H1.65632V16.5593H0.366843ZM0.355291 16.1473C0.355291 16.264 0.355045 16.4288 0.368703 16.6083L1.65446 16.5104C1.64501 16.3863 1.64476 16.2675 1.64476 16.1473H0.355291ZM1.07279 11.4296C0.594232 12.9559 0.352203 14.5477 0.355292 16.1486L1.64476 16.1461C1.64193 14.6768 1.86407 13.2159 2.3032 11.8154L1.07279 11.4296ZM1.58719 10.0116C1.41329 10.4318 1.25411 10.8844 1.07624 11.4189L2.29975 11.8261C2.47489 11.2998 2.62258 10.8818 2.77864 10.5047L1.58719 10.0116ZM1.92113 9.26816C1.82478 9.46121 1.69781 9.72639 1.58193 10.0247L2.7839 10.4916C2.87919 10.2463 2.98648 10.0211 3.07491 9.84394L1.92113 9.26816ZM3.85283 6.19878C3.09235 7.14646 2.44267 8.17951 1.91658 9.27744L3.07945 9.83465C3.56298 8.82553 4.15997 7.87633 4.85853 7.00582L3.85283 6.19878ZM3.94465 6.07495C3.89962 6.12984 3.85737 6.18704 3.81812 6.24633L4.89324 6.95827C4.90821 6.93566 4.92435 6.9138 4.94157 6.89281L3.94465 6.07495ZM5.08755 4.82919C4.71577 5.18543 4.34263 5.60033 3.94909 6.06959L4.93713 6.89817C5.31565 6.44679 5.65522 6.07113 5.97968 5.76024L5.08755 4.82919ZM5.08839 4.828L5.0752 4.84135L5.99203 5.74808L6.00522 5.73474L5.08839 4.828ZM5.2012 4.72056C5.16802 4.75205 5.13578 4.78267 5.10367 4.81306L5.98994 5.74968C6.02299 5.71841 6.05624 5.68683 6.08893 5.6558L5.2012 4.72056ZM5.67545 4.28178C5.50921 4.42791 5.34822 4.58094 5.20109 4.72067L6.08904 5.65569C6.23935 5.51295 6.38236 5.37723 6.52681 5.25024L5.67545 4.28178ZM6.30099 3.75257C6.06972 3.92076 5.85143 4.10627 5.64787 4.30748L6.55439 5.22453C6.71193 5.0688 6.88074 4.92537 7.05941 4.79543L6.30099 3.75257ZM6.32807 3.73365C6.32463 3.73605 6.32313 3.7371 6.32127 3.73838C6.31971 3.73946 6.31921 3.7398 6.31929 3.73974L7.04111 4.80825C7.05096 4.8016 7.06075 4.79476 7.06427 4.79231L6.32807 3.73365ZM6.43294 3.66772C6.38081 3.6961 6.33709 3.72737 6.32754 3.73402L7.0648 4.79194C7.06875 4.78919 7.07059 4.78791 7.07215 4.78684C7.07351 4.78591 7.07337 4.78602 7.0723 4.78672C7.07041 4.78796 7.06217 4.79334 7.04955 4.80021L6.43294 3.66772ZM6.36682 3.70839L6.34538 3.72506L7.13711 4.74286L7.15854 4.72619L6.36682 3.70839ZM6.59469 3.53025C6.53705 3.57244 6.41737 3.6689 6.36577 3.7092L7.15959 4.72537C7.25318 4.65226 7.31827 4.59861 7.35634 4.57075L6.59469 3.53025ZM6.70005 3.44915C6.65899 3.48149 6.62663 3.50689 6.59486 3.53012L7.35616 4.57087C7.40938 4.53194 7.45936 4.49252 7.49801 4.46207L6.70005 3.44915ZM6.71522 3.4372L6.70017 3.44906L7.49789 4.46217L7.51294 4.45031L6.71522 3.4372ZM6.94617 3.27953C6.86067 3.32802 6.77947 3.38392 6.70352 3.44664L7.52464 4.44088C7.54267 4.42599 7.56196 4.41271 7.58228 4.40118L6.94617 3.27953ZM6.90813 3.3025L6.89165 3.31417L7.6368 4.36654L7.65328 4.35487L6.90813 3.3025ZM6.88789 3.31689L6.86974 3.33191L7.69168 4.32547L7.70983 4.31045L6.88789 3.31689ZM7.95753 2.61004C7.60187 2.82299 7.25537 3.05131 6.92296 3.28985L7.67476 4.33749C7.97918 4.11903 8.29589 3.91038 8.61993 3.71637L7.95753 2.61004ZM8.66376 2.20138C8.43269 2.32528 8.18853 2.46715 7.94969 2.61481L8.62777 3.7116C8.84755 3.57573 9.06865 3.44742 9.27309 3.3378L8.66376 2.20138ZM9.01459 2.03077C8.92301 2.07095 8.7963 2.12752 8.65487 2.20624L9.28199 3.33295C9.36826 3.28493 9.44942 3.24811 9.53271 3.21157L9.01459 2.03077ZM10.8393 1.242C10.1995 1.46566 9.57653 1.7356 8.97517 2.04968L9.57213 3.19265C10.1183 2.9074 10.684 2.66229 11.2648 2.45923L10.8393 1.242ZM13.3187 0.591415C12.4738 0.736505 11.6428 0.954676 10.835 1.24352L11.2691 2.45772C12.0068 2.19395 12.7656 1.99475 13.5369 1.86228L13.3187 0.591415ZM14.0124 0.485775C13.8144 0.509341 13.563 0.538877 13.2935 0.596246L13.5621 1.85745C13.7659 1.81405 13.9617 1.79038 14.1648 1.76621L14.0124 0.485775ZM14.0475 0.481578L14.0122 0.4858L14.165 1.76619L14.2004 1.76197L14.0475 0.481578ZM14.2741 0.452315L14.0414 0.482336L14.2065 1.76121L14.4391 1.73119L14.2741 0.452315ZM14.7564 0.405638C14.568 0.399691 14.3796 0.420389 14.1968 0.46712L14.5164 1.71638C14.5815 1.69972 14.6486 1.69235 14.7157 1.69447L14.7564 0.405638ZM15.0941 0.380058L14.6932 0.40674L14.7789 1.69337L15.1798 1.66668L15.0941 0.380058ZM15.1996 0.378635H15.137V1.66811H15.1996V0.378635ZM15.2034 0.373864C15.1698 0.376841 15.1362 0.380869 15.1028 0.385948L15.2965 1.66079C15.3033 1.65975 15.3102 1.65893 15.3171 1.65831L15.2034 0.373864ZM15.2697 0.36935C15.2474 0.370407 15.2252 0.371925 15.2032 0.373887L15.3174 1.65829C15.322 1.65789 15.3264 1.65758 15.3308 1.65737L15.2697 0.36935ZM16.0097 0.355284C15.7798 0.355284 15.5244 0.355121 15.2643 0.369625L15.3361 1.6571C15.5545 1.64492 15.7743 1.64476 16.0097 1.64476V0.355284ZM20.6318 1.05129C19.1338 0.587288 17.5755 0.352667 16.0086 0.355285L16.0108 1.64476C17.4474 1.64236 18.8764 1.85748 20.2502 2.28302L20.6318 1.05129ZM21.4165 1.32052C21.1552 1.21579 20.8887 1.1246 20.6182 1.04727L20.2637 2.28705C20.4918 2.35227 20.7165 2.42918 20.937 2.51749L21.4165 1.32052ZM24.0954 2.61875C23.2387 2.1045 22.3382 1.66846 21.4045 1.31585L20.949 2.52216C21.8103 2.84745 22.6411 3.24977 23.4318 3.72436L24.0954 2.61875ZM24.2331 2.70936C24.1801 2.67063 24.1293 2.63963 24.1027 2.62316L23.4246 3.71994C23.4404 3.72974 23.4498 3.73553 23.4583 3.74105C23.4661 3.74609 23.4702 3.74895 23.4723 3.75048L24.2331 2.70936ZM24.8088 3.08571C24.6051 2.94555 24.3986 2.80977 24.1925 2.68198L23.5129 3.77786C23.6995 3.89358 23.8889 4.01798 24.0779 4.14802L24.8088 3.08571ZM24.9571 3.18239C24.8939 3.13595 24.8276 3.0931 24.7583 3.05428L24.1284 4.17945C24.1504 4.19179 24.1722 4.20575 24.1935 4.22145L24.9571 3.18239ZM24.9971 3.21225L24.9611 3.18535L24.1895 4.2185L24.2256 4.24541L24.9971 3.21225ZM25.6658 3.72495C25.4338 3.53831 25.206 3.36826 24.9972 3.21229L24.2255 4.24537C24.4368 4.40317 24.6464 4.55977 24.8575 4.72963L25.6658 3.72495ZM8.86136 33.0027C9.26766 33.4129 9.82013 33.6447 10.3977 33.6447V32.3553C10.1663 32.3553 9.94312 32.2625 9.77754 32.0953L8.86136 33.0027ZM8.2281 31.4598C8.2281 32.0371 8.45515 32.5922 8.86118 33.0025L9.77773 32.0955C9.61187 31.9279 9.51757 31.6993 9.51757 31.4598H8.2281ZM8.2281 15.9837V31.4598H9.51757V15.9837H8.2281ZM8.26699 15.178C8.24076 15.4455 8.22772 15.7147 8.2281 15.9846L9.51757 15.9828C9.51725 15.7556 9.52823 15.5291 9.55031 15.3038L8.26699 15.178ZM8.60187 13.5013C8.43289 14.0505 8.32125 14.6128 8.26686 15.1793L9.55044 15.3026C9.59654 14.8224 9.69116 14.3458 9.83433 13.8805L8.60187 13.5013ZM9.42163 11.6831C9.08323 12.2536 8.80935 12.8606 8.60474 13.4922L9.83145 13.8896C10.0067 13.3485 10.2412 12.8289 10.5307 12.341L9.42163 11.6831ZM9.49904 11.5565C9.47344 11.5975 9.44812 11.639 9.42321 11.6805L10.5291 12.3436C10.5501 12.3086 10.5715 12.2735 10.5932 12.2388L9.49904 11.5565ZM10.1327 10.6754C9.90107 10.9548 9.68904 11.2498 9.498 11.5582L10.5942 12.2372C10.7542 11.979 10.9316 11.7321 11.1253 11.4985L10.1327 10.6754ZM10.6567 10.0978C10.4725 10.2824 10.2972 10.4758 10.1314 10.677L11.1266 11.4969C11.2664 11.3273 11.4143 11.1642 11.5696 11.0085L10.6567 10.0978ZM10.9844 9.78656C10.8727 9.88706 10.7634 9.99085 10.6567 10.0979L11.5697 11.0084C11.6599 10.918 11.7523 10.8302 11.8468 10.7453L10.9844 9.78656ZM13.3302 8.28633C12.4658 8.64835 11.6711 9.15748 10.9801 9.79049L11.8511 10.7413C12.4329 10.2083 13.1016 9.78007 13.8283 9.4757L13.3302 8.28633ZM16.4895 7.65959C15.4053 7.65401 14.3313 7.86726 13.3303 8.28628L13.8282 9.47575C14.6698 9.12345 15.5723 8.94436 16.4829 8.94904L16.4895 7.65959ZM16.4929 7.65959L16.488 7.65958L16.4844 8.94905L16.4893 8.94906L16.4929 7.65959ZM16.4942 7.65958L16.4893 7.65959L16.4929 8.94906L16.4978 8.94905L16.4942 7.65958ZM19.6519 8.28628C18.6509 7.86726 17.5769 7.65401 16.4927 7.65959L16.4993 8.94904C17.4099 8.94436 18.3124 9.12345 19.154 9.47575L19.6519 8.28628ZM22.0021 9.79049C21.3111 9.15747 20.5164 8.64835 19.652 8.28633L19.1539 9.4757C19.8806 9.78007 20.5493 10.2083 21.1311 10.7413L22.0021 9.79049ZM22.3255 10.0979C22.2189 9.99089 22.1096 9.8871 21.9978 9.78656L21.1354 10.7453C21.2299 10.8302 21.3223 10.9179 21.4125 11.0084L22.3255 10.0979ZM22.8507 10.6768C22.6849 10.4757 22.5097 10.2824 22.3255 10.0978L21.4126 11.0085C21.5679 11.1642 21.7157 11.3272 21.8555 11.4968L22.8507 10.6768ZM23.4843 11.5583C23.2932 11.2499 23.081 10.9546 22.8494 10.6753L21.8567 11.4983C22.0505 11.732 22.2281 11.9791 22.3881 12.2373L23.4843 11.5583ZM23.559 11.6805C23.5341 11.6389 23.5088 11.5977 23.4832 11.5566L22.3891 12.239C22.4107 12.2737 22.4321 12.3086 22.4531 12.3436L23.559 11.6805ZM24.3775 13.4922C24.1729 12.8606 23.899 12.2536 23.5606 11.6831L22.4515 12.341C22.741 12.8289 22.9755 13.3485 23.1507 13.8896L24.3775 13.4922ZM24.7153 15.1793C24.6609 14.6128 24.5493 14.0505 24.3803 13.5013L23.1479 13.8805C23.291 14.3458 23.3857 14.8224 23.4318 15.3026L24.7153 15.1793ZM24.7435 15.5581C24.7371 15.431 24.7276 15.3043 24.7152 15.1781L23.4319 15.3038C23.4423 15.4102 23.4503 15.5169 23.4557 15.6236L24.7435 15.5581ZM24.7394 15.6708L24.7397 15.6686L23.4596 15.5131L23.4593 15.5153L24.7394 15.6708ZM24.3803 18.4748C24.6719 17.5272 24.7928 16.5405 24.7433 15.5605L23.4554 15.6256C23.4975 16.4564 23.3949 17.2927 23.1479 18.0956L24.3803 18.4748ZM23.568 20.2852C23.9034 19.7167 24.175 19.1122 24.3778 18.483L23.1504 18.0875C22.9768 18.6262 22.7443 19.1436 22.4574 19.63L23.568 20.2852ZM20.5572 23.2377C21.7943 22.5309 22.8299 21.5154 23.5655 20.2893L22.4598 19.6259C21.8373 20.6635 20.9617 21.5214 19.9175 22.118L20.5572 23.2377ZM16.5015 24.3231C17.9235 24.3183 19.3201 23.9444 20.5572 23.2377L19.9175 22.118C18.8735 22.7145 17.6957 23.0296 16.4971 23.0336L16.5015 24.3231ZM16.4895 24.3231L16.4977 24.3231L16.5009 23.0336L16.4927 23.0336L16.4895 24.3231ZM16.4845 24.3231L16.4927 24.3231L16.4895 23.0336L16.4813 23.0336L16.4845 24.3231ZM12.425 23.2377C13.6621 23.9444 15.0587 24.3183 16.4807 24.3231L16.4851 23.0336C15.2865 23.0296 14.1087 22.7145 13.0647 22.118L12.425 23.2377ZM11.5357 22.6506C11.8185 22.8646 12.1154 23.0608 12.425 23.2377L13.0647 22.118C12.8034 21.9687 12.5527 21.8031 12.3138 21.6224L11.5357 22.6506ZM12.5695 31.4598V22.1365H11.28V31.4598H12.5695ZM12.4049 32.2945C12.5136 32.0298 12.5695 31.7462 12.5695 31.4598H11.28C11.28 31.5783 11.2569 31.6956 11.212 31.8049L12.4049 32.2945ZM11.9351 33.0036C12.1367 32.8003 12.2961 32.5593 12.4048 32.2948L11.2121 31.8046C11.1672 31.914 11.1016 32.0129 11.0195 32.0956L11.9351 33.0036ZM11.2296 33.4786C11.4943 33.3684 11.7339 33.2066 11.9353 33.0034L11.0194 32.0958C10.9371 32.1788 10.8401 32.244 10.7341 32.2881L11.2296 33.4786ZM10.3969 33.6447C10.6829 33.6451 10.966 33.5886 11.2301 33.4784L10.7336 32.2883C10.6272 32.3327 10.5134 32.3554 10.3985 32.3553L10.3969 33.6447ZM23.4636 15.4602C23.4627 15.4799 23.4611 15.4994 23.4589 15.5187L24.7403 15.663C24.7456 15.6158 24.7494 15.5685 24.7516 15.5211L23.4636 15.4602ZM23.4646 15.417C23.4646 15.4312 23.4643 15.4456 23.4636 15.4602L24.7516 15.5211C24.7533 15.4866 24.7541 15.4519 24.7541 15.417H23.4646ZM24.7541 15.9632V15.417H23.4646V15.9632H24.7541ZM23.4557 15.6237C23.4615 15.737 23.4645 15.8504 23.4646 15.964L24.7541 15.9623C24.7539 15.8273 24.7504 15.6925 24.7435 15.558L23.4557 15.6237ZM18.8826 12.8632C19.0086 12.9631 19.1285 13.0711 19.2415 13.1867L20.1635 12.2852C20.0124 12.1307 19.8522 11.9864 19.6839 11.8529L18.8826 12.8632ZM18.405 12.5465C18.5741 12.6417 18.7354 12.749 18.888 12.8674L19.6785 11.8486C19.4762 11.6917 19.2622 11.5494 19.0379 11.423L18.405 12.5465ZM16.4894 12.0406C17.1598 12.0424 17.8189 12.2162 18.405 12.5465L19.038 11.423C18.2601 10.9848 17.3842 10.7535 16.4928 10.7512L16.4894 12.0406ZM14.5772 12.5465C15.1633 12.2162 15.8224 12.0424 16.4928 12.0406L16.4894 10.7512C15.598 10.7535 14.7221 10.9847 13.9442 11.423L14.5772 12.5465ZM14.0942 12.8674C14.2467 12.7491 14.4081 12.6417 14.5772 12.5465L13.9443 11.423C13.72 11.5494 13.506 11.6917 13.3037 11.8486L14.0942 12.8674ZM13.7407 13.1867C13.8538 13.071 13.9736 12.963 14.0995 12.8632L13.2983 11.8529C13.1299 11.9864 12.9697 12.1308 12.8188 12.2851L13.7407 13.1867ZM13.7161 13.2116L13.7379 13.1895L12.8215 12.2823L12.7997 12.3044L13.7161 13.2116ZM12.8983 14.4421C13.0821 13.9809 13.3588 13.5637 13.7104 13.2172L12.8054 12.2987C12.3261 12.771 11.9499 13.3386 11.7004 13.9649L12.8983 14.4421ZM12.8734 14.5013L12.893 14.4551L11.7057 13.952L11.6861 13.9983L12.8734 14.5013ZM12.5695 16.0043C12.5648 15.4884 12.6679 14.9776 12.8717 14.5053L11.6878 13.9943C11.4126 14.632 11.2738 15.3208 11.2801 16.0159L12.5695 16.0043ZM12.5695 16.1331V16.0101H11.28V16.1331H12.5695ZM12.741 17.1609C12.6374 16.8191 12.5801 16.4667 12.5692 16.1132L11.2803 16.1531C11.2948 16.6192 11.3703 17.084 11.507 17.5349L12.741 17.1609ZM13.1399 18.0474C12.9737 17.7637 12.8387 17.4627 12.7374 17.1496L11.5105 17.5463C11.6406 17.9486 11.814 18.3351 12.0273 18.6991L13.1399 18.0474ZM14.5672 19.4363C13.9808 19.1017 13.4876 18.6209 13.1349 18.0391L12.0322 18.7074C12.4979 19.4757 13.1502 20.1124 13.9282 20.5563L14.5672 19.4363ZM16.4872 19.9532C15.8146 19.9487 15.1537 19.7708 14.5672 19.4362L13.9282 20.5563C14.7063 21.0001 15.5841 21.2366 16.4786 21.2426L16.4872 19.9532ZM16.4927 19.9532L16.4845 19.9531L16.4813 21.2426L16.4895 21.2426L16.4927 19.9532ZM16.4977 19.9531L16.4895 19.9532L16.4927 21.2426L16.5009 21.2426L16.4977 19.9531ZM18.415 19.4362C17.8285 19.7708 17.1676 19.9487 16.495 19.9532L16.5036 21.2426C17.3981 21.2366 18.2759 21.0001 19.054 20.5563L18.415 19.4362ZM19.8473 18.0391C19.4946 18.6209 19.0014 19.1017 18.415 19.4363L19.054 20.5563C19.832 20.1124 20.4843 19.4757 20.95 18.7074L19.8473 18.0391ZM20.2448 17.1496C20.1435 17.4627 20.0085 17.7637 19.8423 18.0474L20.9549 18.6991C21.1682 18.3351 21.3416 17.9486 21.4717 17.5463L20.2448 17.1496ZM20.413 15.863C20.4265 16.2999 20.3692 16.7385 20.2412 17.1609L21.4752 17.5349C21.6442 16.9776 21.7197 16.3992 21.7019 15.8231L20.413 15.863ZM21.7022 15.9318V15.843H20.4127V15.9318H21.7022ZM20.1105 14.5053C20.3055 14.9572 20.4083 15.4445 20.4127 15.9376L21.7021 15.926C21.6962 15.2616 21.5578 14.6045 21.2944 13.9943L20.1105 14.5053ZM20.0892 14.4551L20.1088 14.5013L21.2961 13.9983L21.2765 13.952L20.0892 14.4551ZM19.2718 13.2172C19.6234 13.5637 19.9001 13.9809 20.0839 14.4421L21.2818 13.9649C21.0323 13.3386 20.6561 12.771 20.1768 12.2987L19.2718 13.2172ZM19.2443 13.1895L19.2661 13.2116L20.1825 12.3044L20.1607 12.2823L19.2443 13.1895Z" fill="white" mask="url(#path-1-outside-1_2303_518)"/>
<path d="M44.5803 26V7.81818H51.7536C53.1326 7.81818 54.3074 8.08156 55.2781 8.60831C56.2487 9.12914 56.9885 9.85417 57.4975 10.7834C58.0124 11.7067 58.2699 12.772 58.2699 13.9794C58.2699 15.1868 58.0095 16.2521 57.4886 17.1754C56.9678 18.0987 56.2132 18.8178 55.2248 19.3327C54.2423 19.8477 53.0527 20.1051 51.6559 20.1051H47.0838V17.0245H51.0344C51.7743 17.0245 52.3839 16.8973 52.8633 16.6428C53.3486 16.3823 53.7096 16.0243 53.9464 15.5685C54.189 15.1069 54.3104 14.5772 54.3104 13.9794C54.3104 13.3757 54.189 12.849 53.9464 12.3991C53.7096 11.9434 53.3486 11.5913 52.8633 11.3427C52.378 11.0882 51.7624 10.9609 51.0167 10.9609H48.4244V26H44.5803ZM60.6958 26V12.3636H64.4777V26H60.6958ZM62.5956 10.6058C62.0334 10.6058 61.551 10.4194 61.1485 10.0465C60.752 9.66773 60.5537 9.21496 60.5537 8.68821C60.5537 8.16738 60.752 7.72053 61.1485 7.34766C61.551 6.96887 62.0334 6.77947 62.5956 6.77947C63.1579 6.77947 63.6373 6.96887 64.0338 7.34766C64.4363 7.72053 64.6375 8.16738 64.6375 8.68821C64.6375 9.21496 64.4363 9.66773 64.0338 10.0465C63.6373 10.4194 63.1579 10.6058 62.5956 10.6058ZM70.6678 12.3636L73.1713 17.131L75.737 12.3636H79.6167L75.666 19.1818L79.7232 26H75.8613L73.1713 21.2859L70.5257 26H66.6195L70.6678 19.1818L66.7615 12.3636H70.6678ZM87.589 26.2663C86.1863 26.2663 84.9789 25.9822 83.9668 25.4141C82.9606 24.84 82.1853 24.0291 81.6408 22.9815C81.0963 21.928 80.824 20.6822 80.824 19.244C80.824 17.8413 81.0963 16.6102 81.6408 15.5508C82.1853 14.4914 82.9518 13.6657 83.9402 13.0739C84.9345 12.482 86.1004 12.1861 87.438 12.1861C88.3377 12.1861 89.1751 12.3311 89.9505 12.6211C90.7317 12.9052 91.4123 13.3343 91.9924 13.9084C92.5783 14.4825 93.034 15.2045 93.3596 16.0746C93.6851 16.9387 93.8478 17.9508 93.8478 19.1108V20.1495H82.3333V17.8058H90.2878C90.2878 17.2612 90.1694 16.7789 89.9327 16.3587C89.696 15.9384 89.3675 15.61 88.9473 15.3732C88.533 15.1306 88.0506 15.0092 87.5002 15.0092C86.9261 15.0092 86.4171 15.1424 85.9732 15.4087C85.5352 15.6692 85.1919 16.0213 84.9434 16.4652C84.6948 16.9032 84.5675 17.3915 84.5616 17.93V20.1584C84.5616 20.8331 84.6859 21.4161 84.9345 21.9073C85.189 22.3986 85.5471 22.7773 86.0087 23.0437C86.4703 23.31 87.0178 23.4432 87.6511 23.4432C88.0713 23.4432 88.456 23.384 88.8052 23.2656C89.1544 23.1473 89.4533 22.9697 89.7019 22.733C89.9505 22.4962 90.1399 22.2062 90.2701 21.8629L93.7679 22.0938C93.5904 22.9342 93.2264 23.6681 92.676 24.2955C92.1315 24.9169 91.4271 25.4022 90.563 25.7514C89.7048 26.0947 88.7135 26.2663 87.589 26.2663ZM100.098 7.81818V26H96.3159V7.81818H100.098ZM103.198 26V7.81818H110.372C111.751 7.81818 112.926 8.08156 113.896 8.60831C114.867 9.12914 115.607 9.85417 116.116 10.7834C116.631 11.7067 116.888 12.772 116.888 13.9794C116.888 15.1868 116.628 16.2521 116.107 17.1754C115.586 18.0987 114.831 18.8178 113.843 19.3327C112.86 19.8477 111.671 20.1051 110.274 20.1051H105.702V17.0245H109.653C110.392 17.0245 111.002 16.8973 111.481 16.6428C111.967 16.3823 112.328 16.0243 112.565 15.5685C112.807 15.1069 112.929 14.5772 112.929 13.9794C112.929 13.3757 112.807 12.849 112.565 12.3991C112.328 11.9434 111.967 11.5913 111.481 11.3427C110.996 11.0882 110.381 10.9609 109.635 10.9609H107.043V26H103.198ZM119.314 26V12.3636H122.98V14.7429H123.123C123.371 13.8965 123.788 13.2573 124.374 12.8253C124.96 12.3873 125.635 12.1683 126.398 12.1683C126.588 12.1683 126.792 12.1802 127.011 12.2038C127.23 12.2275 127.422 12.2601 127.588 12.3015V15.6573C127.411 15.604 127.165 15.5567 126.851 15.5153C126.538 15.4738 126.25 15.4531 125.99 15.4531C125.434 15.4531 124.937 15.5745 124.499 15.8171C124.067 16.0539 123.723 16.3853 123.469 16.8114C123.22 17.2376 123.096 17.7288 123.096 18.2852V26H119.314ZM135.07 26.2663C133.691 26.2663 132.498 25.9734 131.492 25.3874C130.492 24.7956 129.719 23.9729 129.175 22.9194C128.63 21.86 128.358 20.6319 128.358 19.2351C128.358 17.8265 128.63 16.5954 129.175 15.5419C129.719 14.4825 130.492 13.6598 131.492 13.0739C132.498 12.482 133.691 12.1861 135.07 12.1861C136.449 12.1861 137.639 12.482 138.639 13.0739C139.645 13.6598 140.42 14.4825 140.965 15.5419C141.509 16.5954 141.782 17.8265 141.782 19.2351C141.782 20.6319 141.509 21.86 140.965 22.9194C140.42 23.9729 139.645 24.7956 138.639 25.3874C137.639 25.9734 136.449 26.2663 135.07 26.2663ZM135.088 23.3366C135.715 23.3366 136.239 23.1591 136.659 22.804C137.079 22.4429 137.396 21.9517 137.609 21.3303C137.828 20.7088 137.937 20.0015 137.937 19.2085C137.937 18.4154 137.828 17.7081 137.609 17.0866C137.396 16.4652 137.079 15.974 136.659 15.6129C136.239 15.2519 135.715 15.0714 135.088 15.0714C134.454 15.0714 133.922 15.2519 133.49 15.6129C133.063 15.974 132.741 16.4652 132.522 17.0866C132.309 17.7081 132.202 18.4154 132.202 19.2085C132.202 20.0015 132.309 20.7088 132.522 21.3303C132.741 21.9517 133.063 22.4429 133.49 22.804C133.922 23.1591 134.454 23.3366 135.088 23.3366Z" fill="white"/>
</svg>
