<svg width="141" height="58" viewBox="0 0 141 58" fill="none" xmlns="http://www.w3.org/2000/svg">
<g id="Layer_1" clip-path="url(#clip0_1133_1420)">
<path id="Vector" d="M21.6716 0V17.0575H9.0498V17.0365L21.6716 0Z" fill="white"/>
<path id="Vector_2" d="M21.6141 33.5127L16.8122 39.9988L13.4593 44.5182L9.0498 50.476V33.5127H21.6141Z" fill="white"/>
<path id="Vector_3" d="M50.5822 48.5775C49.7028 49.8765 48.518 50.9397 47.1317 51.6739C45.7454 52.4081 44.2001 52.7907 42.6315 52.7882H11.5713L17.7017 44.5184H42.6315C43.1488 44.5194 43.6509 44.3428 44.0537 44.0182C44.4566 43.6936 44.7358 43.2405 44.8448 42.7347C44.9538 42.229 44.8859 41.7011 44.6525 41.2394C44.4192 40.7777 44.0344 40.41 43.5625 40.1978C43.493 40.1637 43.4213 40.134 43.3481 40.1089C44.9121 40.4489 48.6782 41.971 50.5822 48.5775Z" fill="white"/>
<path id="Vector_4" d="M61.9425 29.0928L60.5825 30.934V52.788H52.8462C54.9873 50.527 56.3142 47.6173 56.6176 44.5182C56.6595 44.0632 56.6804 43.6081 56.6804 43.1478C56.6799 42.0913 56.5588 41.0383 56.3195 40.0093C56.241 39.685 56.1573 39.366 56.0631 39.0521C55.4351 36.9857 54.3336 35.0944 52.8462 33.5284C52.6632 33.3244 52.4644 33.1309 52.2656 32.9426V29.1085L61.9425 29.0928Z" fill="white"/>
<path id="Vector_5" d="M53.7105 20.9487L52.2616 22.8946L47.5539 29.2552H29.126L35.2826 20.9487H53.7105Z" fill="white"/>
<path id="Vector_6" d="M31.0445 20.9487L24.8879 29.2552H0L6.15659 20.9487H31.0445Z" fill="white"/>
<path id="Vector_7" d="M78.9261 20.792L72.7695 29.0984H52.2598V28.4603L57.9456 20.792H78.9261Z" fill="white"/>
<path id="Vector_8" d="M61.9418 29.0928L60.5818 30.934V39.0626H56.0729C55.4449 36.9962 54.3434 35.1048 52.856 33.5389C52.6729 33.3349 52.4742 33.1414 52.2754 32.9531V29.1189L61.9418 29.0928Z" fill="white"/>
<path id="Vector_9" d="M52.2656 43.1478C52.2645 43.6063 52.2312 44.0643 52.1662 44.5182C52.0325 45.4807 51.7483 46.4163 51.324 47.2905C51.1179 47.7356 50.8747 48.1625 50.597 48.5668C48.693 41.9604 44.9268 40.4382 43.3628 40.0982L43.1693 40.0459C43.0472 40.0179 42.923 40.0004 42.7979 39.9936H42.6462H21.0537L21.6762 39.1462L25.8608 33.5127H42.641C43.1666 33.5115 43.6915 33.5535 44.2102 33.6383C45.3904 33.8273 46.5232 34.241 47.5474 34.857C48.9922 35.7052 50.1898 36.9167 51.0212 38.3712C51.8526 39.8257 52.2888 41.4724 52.2865 43.1478H52.2656Z" fill="white"/>
<path id="Vector_10" d="M50.5818 48.5775C49.7025 49.8765 48.5176 50.9397 47.1314 51.6739C45.7451 52.4081 44.1998 52.7907 42.6311 52.7882H37.6357C37.9287 50.8005 38.729 45.9359 38.9644 44.5184H42.6259C43.1432 44.5194 43.6453 44.3428 44.0481 44.0182C44.451 43.6936 44.7302 43.2405 44.8392 42.7347C44.9482 42.229 44.8803 41.7011 44.647 41.2394C44.4136 40.7777 44.0288 40.41 43.557 40.1978C43.4874 40.1637 43.4158 40.134 43.3425 40.1089C44.9117 40.4489 48.6778 41.971 50.5818 48.5775Z" fill="white"/>
<path id="Vector_11" d="M16.8122 39.9995L13.4593 44.5189L9.0498 50.4767V39.9995H16.8122Z" fill="white"/>
<path id="Vector_12" d="M67.7845 33.5493H64.4316V52.8142H67.7845V33.5493Z" fill="white"/>
<path id="Vector_13" d="M78.1581 48.4209L77.8286 48.8445C77.5284 49.236 77.1576 49.5678 76.7353 49.8227C76.2849 50.0668 75.7775 50.186 75.2655 50.1679C74.8907 50.1797 74.518 50.109 74.1736 49.9608C73.8292 49.8125 73.5216 49.5904 73.2726 49.3101C72.8224 48.8017 72.5425 48.1652 72.4723 47.4898H80.1144V46.1507C80.1144 44.2205 79.6593 42.7036 78.7649 41.6366C78.2908 41.0885 77.6984 40.6554 77.0323 40.37C76.3663 40.0845 75.6441 39.9542 74.9203 39.9889C73.9239 39.9871 72.9489 40.2781 72.1166 40.8258C71.2545 41.3905 70.5663 42.1837 70.1289 43.1169C69.6502 44.13 69.4104 45.2395 69.428 46.3599V46.7156C69.3556 48.3418 69.9291 49.9305 71.0234 51.1356C71.5566 51.6901 72.2006 52.1262 72.9134 52.4155C73.6263 52.7048 74.392 52.8408 75.1609 52.8147C76.0905 52.8614 77.0159 52.6608 77.8428 52.2336C78.6698 51.8063 79.3687 51.1676 79.8685 50.3824L80.1353 49.9744L78.1581 48.4209ZM72.5821 44.8169C72.6936 44.261 72.9478 43.7436 73.3197 43.3156C73.5168 43.0956 73.759 42.9206 74.0297 42.8023C74.3005 42.6841 74.5935 42.6255 74.8889 42.6304C75.1746 42.6151 75.4601 42.664 75.7244 42.7735C75.9887 42.883 76.2251 43.0504 76.4163 43.2633C76.7741 43.7135 76.9906 44.2595 77.0387 44.8326L72.5821 44.8169Z" fill="white"/>
<path id="Vector_14" d="M92.1387 51.6952C91.8719 50.9675 91.751 50.1943 91.783 49.4198V44.1891C91.7937 43.6093 91.6803 43.0339 91.4502 42.5016C91.2201 41.9693 90.8788 41.4924 90.4492 41.1029C89.4861 40.3209 88.2672 39.9239 87.0283 39.9888C86.1709 39.987 85.3227 40.1652 84.5385 40.5119C83.8159 40.8231 83.1829 41.3105 82.6972 41.9294C82.2491 42.4863 81.9989 43.1763 81.9859 43.8909V44.414H85.004V43.8909C85.0061 43.7207 85.052 43.5538 85.1372 43.4063C85.2224 43.2588 85.344 43.1357 85.4904 43.0488C85.9061 42.7572 86.4059 42.6102 86.9132 42.6303C87.4265 42.5884 87.9356 42.75 88.3308 43.0802C88.4865 43.245 88.6068 43.4401 88.6842 43.6534C88.7616 43.8666 88.7944 44.0934 88.7806 44.3199V44.6808H87.4258C85.6892 44.6808 84.2874 45.0469 83.3249 45.7635C82.8193 46.1211 82.4109 46.5992 82.1368 47.1546C81.8628 47.71 81.7318 48.325 81.7557 48.9438C81.7447 49.4749 81.8516 50.0018 82.0687 50.4866C82.2858 50.9714 82.6076 51.402 83.0111 51.7475C83.8739 52.4825 84.9801 52.8687 86.1129 52.8303C87.1447 52.8431 88.1526 52.52 88.9846 51.9097C89.0235 52.0538 89.0761 52.1939 89.1415 52.3281L89.288 52.6211H92.1806V51.8103L92.1387 51.6952ZM88.7806 47.1026V48.766C88.5634 49.1444 88.2444 49.4543 87.86 49.6605C87.4193 49.9253 86.9147 50.0645 86.4006 50.0632C85.9607 50.0873 85.5272 49.9496 85.1818 49.6761C85.0328 49.5483 84.9165 49.3866 84.8428 49.2046C84.7691 49.0226 84.7401 48.8255 84.7581 48.63C84.7581 48.2482 84.7582 47.0608 87.792 47.0608L88.7806 47.1026Z" fill="white"/>
<path id="Vector_15" d="M100.164 40.1978C99.8142 40.0422 99.4327 39.9706 99.0501 39.9886C98.2429 39.9689 97.4525 40.2213 96.8061 40.7052V40.1821H93.8193V52.7934H96.8741V44.2045C97.0475 43.8046 97.3438 43.4704 97.72 43.2503C98.0962 43.0302 98.5328 42.9357 98.9664 42.9805C99.2625 42.9777 99.5582 43.0005 99.8504 43.0485L100.478 43.1532V40.3443L100.164 40.1978Z" fill="white"/>
<path id="Vector_16" d="M108.01 39.9892C106.941 39.9678 105.895 40.3089 105.044 40.9569L105.013 40.2037H102.089V52.815H105.144V44.1895C105.354 43.7725 105.662 43.4133 106.043 43.1434C106.444 42.8631 106.925 42.7184 107.414 42.7302C107.656 42.7059 107.9 42.731 108.132 42.8038C108.364 42.8766 108.579 42.9957 108.763 43.1538C109.077 43.5786 109.228 44.1023 109.187 44.6289V52.7993H112.242V44.6498C112.21 40.8 109.925 39.9892 108.01 39.9892Z" fill="white"/>
<path id="Vector_17" d="M116.96 40.0093H113.863V52.8037H116.96V40.0093Z" fill="white"/>
<path id="Vector_18" d="M124.465 39.9893C123.403 39.9672 122.366 40.3045 121.52 40.9465L121.489 40.2038H118.591V52.7105H121.619V44.153C121.826 43.7368 122.131 43.3776 122.509 43.1068C122.908 42.8282 123.387 42.6852 123.874 42.6988C124.113 42.6755 124.354 42.7005 124.583 42.7724C124.813 42.8443 125.025 42.9616 125.208 43.1173C125.521 43.5383 125.67 44.059 125.626 44.5819V52.6843H128.655V44.6133C128.629 40.7948 126.358 39.9893 124.465 39.9893Z" fill="white"/>
<path id="Vector_19" d="M138.186 40.2029L138.138 40.8306C137.316 40.2538 136.329 39.9584 135.324 39.9884C134.611 39.9705 133.904 40.123 133.262 40.4332C132.62 40.7434 132.061 41.2024 131.631 41.7721C130.679 43.1021 130.203 44.7149 130.282 46.349C130.282 48.321 130.737 49.9111 131.637 51.0567C132.054 51.6341 132.605 52.1019 133.243 52.4198C133.881 52.7377 134.586 52.8964 135.298 52.8822C136.235 52.9062 137.158 52.6572 137.955 52.1656C137.968 52.79 137.74 53.3953 137.317 53.8551C137.071 54.0825 136.78 54.257 136.463 54.3677C136.147 54.4783 135.811 54.5228 135.476 54.4985C134.959 54.4986 134.449 54.3763 133.988 54.1418C133.527 53.9073 133.128 53.5671 132.824 53.149L132.421 52.6259L130.721 54.5927L130.951 54.9326C131.461 55.6567 132.164 56.2223 132.981 56.5646C133.803 56.938 134.694 57.1341 135.596 57.14C136.309 57.1716 137.02 57.0616 137.69 56.8165C138.36 56.5714 138.975 56.196 139.498 55.712C139.998 55.2021 140.386 54.5947 140.64 53.9278C140.894 53.2609 141.007 52.5488 140.973 51.8361V40.2029H138.186ZM137.966 48.8964C137.768 49.2987 137.456 49.6341 137.069 49.861C136.682 50.0878 136.238 50.1962 135.79 50.1727C135.442 50.189 135.097 50.117 134.785 49.9633C134.473 49.8096 134.205 49.5793 134.006 49.2939C133.502 48.4798 133.261 47.53 133.316 46.5739C133.316 45.2453 133.551 44.2462 134.017 43.6028C134.218 43.3174 134.488 43.087 134.801 42.9326C135.115 42.7782 135.462 42.7047 135.811 42.7189C136.25 42.7038 136.684 42.8119 137.065 43.031C137.446 43.25 137.758 43.5714 137.966 43.9585V48.8964Z" fill="white"/>
<path id="Vector_20" d="M115.412 37.9433C116.267 37.9433 116.96 37.2501 116.96 36.395C116.96 35.5399 116.267 34.8467 115.412 34.8467C114.556 34.8467 113.863 35.5399 113.863 36.395C113.863 37.2501 114.556 37.9433 115.412 37.9433Z" fill="white"/>
</g>
<defs>
<clipPath id="clip0_1133_1420">
<rect width="141" height="57.1877" fill="white"/>
</clipPath>
</defs>
</svg>
