<svg width="30" height="30" viewBox="0 0 30 30" fill="none" xmlns="http://www.w3.org/2000/svg">
<path fill-rule="evenodd" clip-rule="evenodd" d="M15 30C23.2843 30 30 23.2843 30 15C30 6.71573 23.2843 0 15 0C6.71573 0 0 6.71573 0 15C0 23.2843 6.71573 30 15 30ZM7.19996 14.9999C7.19996 14.5882 6.86619 14.2544 6.45447 14.2544C6.04275 14.2544 5.70898 14.5882 5.70898 14.9999C5.70898 20.1336 9.87072 24.2954 15.0045 24.2954C20.1382 24.2954 24.3 20.1336 24.3 14.9999C24.3 14.5882 23.9662 14.2544 23.5545 14.2544C23.1427 14.2544 22.809 14.5882 22.809 14.9999C22.809 19.3102 19.3148 22.8044 15.0045 22.8044C10.6942 22.8044 7.19996 19.3102 7.19996 14.9999ZM12.4531 11.55C12.4531 12.3785 11.7816 13.05 10.9531 13.05C10.1247 13.05 9.45312 12.3785 9.45312 11.55C9.45312 10.7216 10.1247 10.05 10.9531 10.05C11.7816 10.05 12.4531 10.7216 12.4531 11.55ZM18.8984 13.05C19.7269 13.05 20.3984 12.3785 20.3984 11.55C20.3984 10.7216 19.7269 10.05 18.8984 10.05C18.07 10.05 17.3984 10.7216 17.3984 11.55C17.3984 12.3785 18.07 13.05 18.8984 13.05Z" fill="#9CA7C2"/>
</svg>
